<svg xmlns="http://www.w3.org/2000/svg" width="550" height="150">

    <path d="
    M 5 145
    l 90 -95
    l -45 -45
    l -45 45
    l 90 95

    M 125 145
    l 0 -140
    a 90 50 0 0 1 0 95
    l 60 45

    M 215 5
    l 0 95
    a 45 45 0 1 0 90 0
    l 0 -95

    M 335 145
    l 0 -140
    l 90 140
    l 0 -140

    M 445 5
    l 0 140
    l 90 0
    m -90 -65
    l 90 0
    m -90 -75
    l 90 0
    "
    stroke="black"
    stroke-width="10"
    stroke-linecap="round"
    stroke-linejoin="round"
    fill="none"
    />

</svg>